<svg width="32" height="32" viewBox="0 0 32 32" fill="none" xmlns="http://www.w3.org/2000/svg">
<path d="M29.1429 1.71429H2.85714C2.225 1.71429 1.71429 2.225 1.71429 2.85714V29.1429C1.71429 29.775 2.225 30.2857 2.85714 30.2857H29.1429C29.775 30.2857 30.2857 29.775 30.2857 29.1429V2.85714C30.2857 2.225 29.775 1.71429 29.1429 1.71429ZM10.1893 26.0607H5.95V12.425H10.1893V26.0607ZM8.07143 10.5607C7.58545 10.5607 7.11039 10.4166 6.70631 10.1466C6.30224 9.87662 5.9873 9.49286 5.80132 9.04388C5.61535 8.59489 5.56669 8.10085 5.6615 7.62421C5.75631 7.14757 5.99033 6.70975 6.33397 6.36611C6.6776 6.02247 7.11542 5.78845 7.59206 5.69364C8.0687 5.59883 8.56275 5.64749 9.01174 5.83347C9.46072 6.01944 9.84447 6.33438 10.1145 6.73846C10.3845 7.14253 10.5286 7.61759 10.5286 8.10357C10.525 9.46071 9.425 10.5607 8.07143 10.5607ZM26.0607 26.0607H21.825V19.4286C21.825 17.8464 21.7964 15.8143 19.6214 15.8143C17.4179 15.8143 17.0786 17.5357 17.0786 19.3143V26.0607H12.8464V12.425H16.9107V14.2893H16.9679C17.5321 13.2179 18.9143 12.0857 20.9786 12.0857C25.2714 12.0857 26.0607 14.9107 26.0607 18.5821V26.0607Z" fill="white"/>
</svg>
